<svg xmlns="http://www.w3.org/2000/svg" viewBox="0 0 260 280"><g fill="none" stroke="#b7793d" stroke-width="1.4" stroke-linecap="round" stroke-linejoin="round" opacity=".75"><path d="M17 255V74l41-20 5-29 135 30 36-13v213M17 76l184 46 33-13M29 247V92l36 8v148M76 253V104l40 9v141M127 256V117l36 9v129M180 260V133l35 8v112M20 175l209 41M29 135l189 44M16 58L61 8l148 34M53 54l148 49 30-15M64 25l144 51M57 11l9 30M116 23v19M171 35v22"/><path d="M32 128v-20q15-18 30 7v21M82 137v-19q15-18 29 7v20M133 151v-20q15-18 26 8v19M185 165v-20q15-18 27 8v19M36 215v-45q12-15 23 9v43M83 225v-43q12-15 24 9v44M132 239v-42q12-15 26 9v43M186 250v-40q12-15 25 9v38M0 267l247 8M88 19l4-17M209 43V22l12 4v19M24 254l34-6M83 254l28-1M132 258l26-2"/></g></svg>
